<svg width="17" height="17" viewBox="0 0 17 17" fill="none" xmlns="http://www.w3.org/2000/svg">
<path d="M5.52533 1.4165H11.4753C13.742 1.4165 15.5837 3.25817 15.5837 5.52484V11.4748C15.5837 12.5644 15.1508 13.6094 14.3804 14.3799C13.6099 15.1503 12.5649 15.5832 11.4753 15.5832H5.52533C3.25866 15.5832 1.41699 13.7415 1.41699 11.4748V5.52484C1.41699 4.43524 1.84983 3.39027 2.6203 2.61981C3.39076 1.84934 4.43573 1.4165 5.52533 1.4165ZM5.38366 2.83317C4.70736 2.83317 4.05875 3.10183 3.58054 3.58005C3.10232 4.05827 2.83366 4.70687 2.83366 5.38317V11.6165C2.83366 13.0261 3.97408 14.1665 5.38366 14.1665H11.617C12.2933 14.1665 12.9419 13.8978 13.4201 13.4196C13.8983 12.9414 14.167 12.2928 14.167 11.6165V5.38317C14.167 3.97359 13.0266 2.83317 11.617 2.83317H5.38366ZM12.2191 3.89567C12.4539 3.89567 12.6791 3.98896 12.8452 4.155C13.0112 4.32105 13.1045 4.54626 13.1045 4.78109C13.1045 5.01591 13.0112 5.24112 12.8452 5.40717C12.6791 5.57322 12.4539 5.6665 12.2191 5.6665C11.9842 5.6665 11.759 5.57322 11.593 5.40717C11.4269 5.24112 11.3337 5.01591 11.3337 4.78109C11.3337 4.54626 11.4269 4.32105 11.593 4.155C11.759 3.98896 11.9842 3.89567 12.2191 3.89567ZM8.50033 4.95817C9.43963 4.95817 10.3405 5.33131 11.0047 5.9955C11.6689 6.65969 12.042 7.56053 12.042 8.49984C12.042 9.43915 11.6689 10.34 11.0047 11.0042C10.3405 11.6684 9.43963 12.0415 8.50033 12.0415C7.56102 12.0415 6.66018 11.6684 5.99599 11.0042C5.3318 10.34 4.95866 9.43915 4.95866 8.49984C4.95866 7.56053 5.3318 6.65969 5.99599 5.9955C6.66018 5.33131 7.56102 4.95817 8.50033 4.95817ZM8.50033 6.37484C7.93674 6.37484 7.39624 6.59872 6.99772 6.99723C6.59921 7.39575 6.37533 7.93625 6.37533 8.49984C6.37533 9.06342 6.59921 9.60392 6.99772 10.0024C7.39624 10.401 7.93674 10.6248 8.50033 10.6248C9.06391 10.6248 9.60441 10.401 10.0029 10.0024C10.4014 9.60392 10.6253 9.06342 10.6253 8.49984C10.6253 7.93625 10.4014 7.39575 10.0029 6.99723C9.60441 6.59872 9.06391 6.37484 8.50033 6.37484Z" fill="white"/>
</svg>
